<svg width="100" height="54" viewBox="0 0 100 54" fill="none" xmlns="http://www.w3.org/2000/svg">
<path id="G.dev" d="M16.728 26.24C16.728 25.344 17.752 24.6187 19.8 24.064C21.848 23.5093 24.0667 23.232 26.456 23.232C28.8453 23.232 30.6587 24.192 31.896 26.112C33.176 28.032 33.816 30.1653 33.816 32.512C33.816 34.8587 32.8133 38.912 30.808 44.672C28.8453 50.3893 27.1387 53.248 25.688 53.248C25.0907 53.248 24.5787 53.056 24.152 52.672C23.768 52.3307 23.576 51.8827 23.576 51.328C23.576 48.256 24.4293 43.8613 26.136 38.144C24.1307 40.704 21.9333 42.7733 19.544 44.352C17.1973 45.9307 14.7653 46.72 12.248 46.72C9.77333 46.72 7.17067 45.632 4.44 43.456C1.70933 41.28 0.344 38.8907 0.344 36.288C0.344 31.68 1.70933 26.5813 4.44 20.992C7.17067 15.36 10.6267 10.56 14.808 6.592C18.9893 2.624 22.936 0.639999 26.648 0.639999C27.928 0.639999 29.2507 1.64267 30.616 3.648C32.024 5.65333 32.728 7.488 32.728 9.152C32.728 9.92 32.4507 10.304 31.896 10.304C31.8107 10.304 31.4053 10.2187 30.68 10.048C29.9547 9.87733 29.0587 9.792 27.992 9.792C25.1333 9.792 22.2107 11.264 19.224 14.208C16.2373 17.1093 13.8053 20.6933 11.928 24.96C10.0507 29.2267 9.112 33.2373 9.112 36.992C9.112 38.1013 9.83733 38.656 11.288 38.656C13.2933 38.656 15.7467 37.76 18.648 35.968C21.592 34.176 23.8533 32.1707 25.432 29.952C24.4933 29.9947 23.3413 30.016 21.976 30.016C20.6533 30.016 19.4373 29.6107 18.328 28.8C17.2613 27.9893 16.728 27.136 16.728 26.24ZM43.0275 48.24C42.4408 48.24 41.7742 47.8667 41.0275 47.12C40.2808 46.3467 39.9075 45.72 39.9075 45.24C39.9075 44.7333 40.0808 44.2533 40.4275 43.8C40.8008 43.3467 41.1742 43.12 41.5475 43.12C41.9475 43.12 42.4275 43.72 42.9875 44.92C43.5475 46.12 43.8275 47.0267 43.8275 47.64C43.8275 47.7467 43.7342 47.8667 43.5475 48C43.3608 48.16 43.1875 48.24 43.0275 48.24ZM64.4797 17.92C64.4797 17.4667 64.5197 17.16 64.5997 17C64.6797 16.8133 64.8797 16.72 65.1997 16.72C65.5197 16.72 65.8664 17.0133 66.2397 17.6C66.6397 18.16 66.8397 18.8133 66.8397 19.56C66.8397 20.3067 66.533 22.3333 65.9197 25.64C65.333 28.9467 64.3197 33.3867 62.8797 38.96C61.4664 44.5333 60.5464 47.32 60.1197 47.32C59.8264 47.32 59.533 47.16 59.2397 46.84C58.9464 46.4933 58.7997 46.1333 58.7997 45.76C58.7997 45.36 58.9864 44.32 59.3597 42.64C58.213 44 56.973 45.12 55.6397 46C54.3064 46.88 53.0264 47.32 51.7997 47.32C50.573 47.32 49.5197 46.84 48.6397 45.88C47.7864 44.8933 47.3597 43.8133 47.3597 42.64C47.3597 41.44 47.653 40 48.2397 38.32C48.853 36.64 49.6264 35.0267 50.5597 33.48C51.5197 31.9333 52.6797 30.6267 54.0397 29.56C55.3997 28.4667 56.7597 27.92 58.1197 27.92C60.173 27.92 61.5064 29.28 62.1197 32C63.453 26.3467 64.2397 21.6533 64.4797 17.92ZM58.2797 30.28C57.0797 30.28 55.7997 30.9867 54.4397 32.4C53.0797 33.7867 51.9597 35.48 51.0797 37.48C50.1997 39.4533 49.7597 41.28 49.7597 42.96C49.7597 43.5733 50.013 44.0933 50.5197 44.52C51.0264 44.9467 51.573 45.16 52.1597 45.16C53.3864 45.16 54.9464 44.32 56.8397 42.64C58.973 40.72 60.373 38.6 61.0397 36.28C61.0397 34.5733 60.7997 33.1467 60.3197 32C59.8397 30.8533 59.1597 30.28 58.2797 30.28ZM82.0613 34.24C82.0613 35.6267 81.3546 36.7333 79.9413 37.56C78.5279 38.36 76.9013 38.76 75.0613 38.76C73.2213 38.76 71.2879 38.5067 69.2613 38C68.8346 39.36 68.6213 40.5733 68.6213 41.64C68.6213 42.7067 68.9946 43.5467 69.7413 44.16C70.4879 44.7467 71.4746 45.04 72.7013 45.04C73.9279 45.04 75.2346 44.7867 76.6213 44.28C78.0079 43.7733 78.7946 43.52 78.9813 43.52C79.4613 43.52 79.7013 43.7333 79.7013 44.16C79.7013 44.6933 78.9146 45.36 77.3413 46.16C75.7679 46.9333 74.3279 47.32 73.0213 47.32C71.1813 47.32 69.6079 46.7467 68.3013 45.6C67.0213 44.4267 66.3813 42.92 66.3813 41.08C66.3813 39.2133 66.8613 37.2533 67.8213 35.2C68.7813 33.1467 70.0346 31.4267 71.5813 30.04C73.1279 28.6267 74.6479 27.92 76.1413 27.92C77.6613 27.92 79.0213 28.6267 80.2213 30.04C81.4479 31.4267 82.0613 32.8267 82.0613 34.24ZM76.4613 30.16C75.2613 30.16 74.0613 30.7467 72.8613 31.92C71.6879 33.0933 70.7146 34.56 69.9413 36.32C71.4879 36.6933 73.0213 36.88 74.5413 36.88C76.0879 36.88 77.3413 36.6267 78.3013 36.12C79.2879 35.5867 79.7813 34.9067 79.7813 34.08C79.7813 33.2267 79.4213 32.36 78.7013 31.48C77.9813 30.6 77.2346 30.16 76.4613 30.16ZM97.9697 27.92C98.263 27.92 98.5697 28.0533 98.8897 28.32C99.2364 28.56 99.4097 28.84 99.4097 29.16C99.4097 29.7733 98.823 31.3733 97.6497 33.96C96.4764 36.52 95.3297 39.04 94.2097 41.52C93.1164 43.9733 92.3564 45.5867 91.9297 46.36C91.503 47.1067 91.063 47.48 90.6097 47.48C89.303 47.48 87.8897 44.0533 86.3697 37.2C85.5697 33.7067 85.1697 30.9467 85.1697 28.92C85.1697 28.2533 85.343 27.92 85.6897 27.92C86.063 27.92 86.4764 28.1067 86.9297 28.48C87.4097 28.8533 87.6764 29.2933 87.7297 29.8C88.0764 36.3067 89.0897 41.24 90.7697 44.6C91.3297 43.24 92.2764 40.88 93.6097 37.52C94.943 34.1333 95.943 31.6933 96.6097 30.2C97.2764 28.68 97.7297 27.92 97.9697 27.92Z" fill="black"/>
</svg>
